<svg width="24" height="24" viewBox="0 0 24 24" fill="none" xmlns="http://www.w3.org/2000/svg">
<g filter="url(#filter0_d_1_511)">
<path d="M17.6562 0H6.34375C5.05156 0 4 1.05156 4 2.34375V13.6562C4 14.9487 5.05156 16 6.34375 16H17.6562C18.9487 16 20 14.9487 20 13.6562V2.34375C20 1.05156 18.9487 0 17.6562 0ZM19.0625 13.6562C19.0625 14.4316 18.4316 15.0625 17.6562 15.0625H6.34375C5.56844 15.0625 4.9375 14.4316 4.9375 13.6562V2.34375C4.9375 1.56844 5.56844 0.9375 6.34375 0.9375H17.6562C18.4316 0.9375 19.0625 1.56844 19.0625 2.34375V13.6562Z" fill="white"/>
<path d="M17.1562 1.90625C16.6394 1.90625 16.2188 2.32687 16.2188 2.84375C16.2188 3.36063 16.6394 3.78125 17.1562 3.78125C17.6731 3.78125 18.0938 3.36063 18.0938 2.84375C18.0938 2.32687 17.6731 1.90625 17.1562 1.90625Z" fill="white"/>
<path d="M12 3.78125C9.67375 3.78125 7.78125 5.67375 7.78125 8C7.78125 10.3263 9.67375 12.2188 12 12.2188C14.3263 12.2188 16.2188 10.3263 16.2188 8C16.2188 5.67375 14.3263 3.78125 12 3.78125ZM12 11.2812C10.1906 11.2812 8.71875 9.80937 8.71875 8C8.71875 6.19062 10.1906 4.71875 12 4.71875C13.8094 4.71875 15.2812 6.19062 15.2812 8C15.2812 9.80937 13.8094 11.2812 12 11.2812Z" fill="white"/>
</g>
<defs>
<filter id="filter0_d_1_511" x="0" y="0" width="24" height="24" filterUnits="userSpaceOnUse" color-interpolation-filters="sRGB">
<feFlood flood-opacity="0" result="BackgroundImageFix"/>
<feColorMatrix in="SourceAlpha" type="matrix" values="0 0 0 0 0 0 0 0 0 0 0 0 0 0 0 0 0 0 127 0" result="hardAlpha"/>
<feOffset dy="4"/>
<feGaussianBlur stdDeviation="2"/>
<feComposite in2="hardAlpha" operator="out"/>
<feColorMatrix type="matrix" values="0 0 0 0 0 0 0 0 0 0 0 0 0 0 0 0 0 0 0.25 0"/>
<feBlend mode="normal" in2="BackgroundImageFix" result="effect1_dropShadow_1_511"/>
<feBlend mode="normal" in="SourceGraphic" in2="effect1_dropShadow_1_511" result="shape"/>
</filter>
</defs>
</svg>
