<svg width="24" height="21" viewBox="0 0 24 21" fill="none" xmlns="http://www.w3.org/2000/svg">
<g filter="url(#filter0_d_1_509)">
<path d="M20 1.539C19.405 1.8 18.771 1.973 18.11 2.057C18.79 1.651 19.309 1.013 19.553 0.244C18.919 0.622 18.219 0.889 17.473 1.038C16.871 0.397 16.013 0 15.077 0C13.261 0 11.799 1.474 11.799 3.281C11.799 3.541 11.821 3.791 11.875 4.029C9.148 3.896 6.735 2.589 5.114 0.598C4.831 1.089 4.665 1.651 4.665 2.256C4.665 3.392 5.25 4.399 6.122 4.982C5.595 4.972 5.078 4.819 4.64 4.578C4.64 4.588 4.64 4.601 4.64 4.614C4.64 6.208 5.777 7.532 7.268 7.837C7.001 7.91 6.71 7.945 6.408 7.945C6.198 7.945 5.986 7.933 5.787 7.889C6.212 9.188 7.418 10.143 8.852 10.174C7.736 11.047 6.319 11.573 4.785 11.573C4.516 11.573 4.258 11.561 4 11.528C5.453 12.465 7.175 13 9.032 13C15.068 13 18.368 8 18.368 3.666C18.368 3.521 18.363 3.381 18.356 3.242C19.007 2.78 19.554 2.203 20 1.539Z" fill="#080809"/>
</g>
<defs>
<filter id="filter0_d_1_509" x="0" y="0" width="24" height="21" filterUnits="userSpaceOnUse" color-interpolation-filters="sRGB">
<feFlood flood-opacity="0" result="BackgroundImageFix"/>
<feColorMatrix in="SourceAlpha" type="matrix" values="0 0 0 0 0 0 0 0 0 0 0 0 0 0 0 0 0 0 127 0" result="hardAlpha"/>
<feOffset dy="4"/>
<feGaussianBlur stdDeviation="2"/>
<feComposite in2="hardAlpha" operator="out"/>
<feColorMatrix type="matrix" values="0 0 0 0 0 0 0 0 0 0 0 0 0 0 0 0 0 0 0.25 0"/>
<feBlend mode="normal" in2="BackgroundImageFix" result="effect1_dropShadow_1_509"/>
<feBlend mode="normal" in="SourceGraphic" in2="effect1_dropShadow_1_509" result="shape"/>
</filter>
</defs>
</svg>
