<svg width="54" height="15" viewBox="0 0 54 15" fill="none" xmlns="http://www.w3.org/2000/svg">
<path d="M6.02399 2.73757H3.21599V3.84874H4.71199C4.51199 4.38051 4.02399 4.70592 3.27999 4.70592C2.19199 4.70592 1.51999 4.01541 1.51999 3.07092C1.51999 2.09468 2.22399 1.40417 3.16799 1.40417C3.79999 1.40417 4.30399 1.6899 4.53599 2.055L5.62399 1.43592C5.15199 0.689851 4.24799 0.166016 3.17599 0.166016C1.52799 0.166016 0.23999 1.45179 0.23999 3.06298C0.23999 4.6583 1.50399 5.94408 3.26399 5.94408C4.83199 5.94408 6.02399 4.91228 6.02399 3.21378V2.73757Z" fill="white"/>
<path d="M7.62562 4.61068V3.6265H9.62562V2.42009H7.62562V1.49941H9.82561V0.277132H6.34562V5.83296H9.86561V4.61068H7.62562Z" fill="white"/>
<path d="M13.9478 0.277132H9.7878V1.49941H11.2278V5.83296H12.5078V1.49941H13.9478V0.277132Z" fill="white"/>
<path d="M15.7081 0.277132V5.83296H16.9881V0.277132H15.7081Z" fill="white"/>
<path d="M21.3103 0.277132H17.1503V1.49941H18.5903V5.83296H19.8703V1.49941H21.3103V0.277132Z" fill="white"/>
<path d="M25.7426 5.94408C27.3506 5.94408 28.6546 4.69005 28.6546 3.05505C28.6546 1.42005 27.3506 0.166016 25.7426 0.166016C24.1346 0.166016 22.8306 1.42005 22.8306 3.05505C22.8306 4.69005 24.1346 5.94408 25.7426 5.94408ZM25.7426 4.70592C24.8306 4.70592 24.1106 4.04716 24.1106 3.05505C24.1106 2.06293 24.8306 1.40417 25.7426 1.40417C26.6546 1.40417 27.3746 2.06293 27.3746 3.05505C27.3746 4.04716 26.6546 4.70592 25.7426 4.70592Z" fill="white"/>
<path d="M32.0953 0.277132V3.29315L29.9353 0.277132H28.9753V5.83296H30.2553V2.81694L32.4153 5.83296H33.3753V0.277132H32.0953Z" fill="white"/>
<path d="M6.02399 12.1745V12.3888C6.02399 13.082 5.77599 13.6667 5.27999 14.1429C4.78399 14.6138 4.13066 14.8493 3.31999 14.8493C2.46666 14.8493 1.76266 14.5741 1.20799 14.0238C0.653324 13.4683 0.37599 12.7883 0.37599 11.9841C0.37599 11.1798 0.650657 10.5025 1.19999 9.95221C1.74932 9.39662 2.44532 9.11883 3.28799 9.11883C3.79999 9.11883 4.26932 9.24053 4.69599 9.48393C5.12799 9.72733 5.46132 10.0527 5.69599 10.4602L5.31999 10.6824C5.13332 10.3332 4.85599 10.0527 4.48799 9.84109C4.12532 9.62944 3.72532 9.52361 3.28799 9.52361C2.56266 9.52361 1.96532 9.76172 1.49599 10.2379C1.03199 10.7089 0.79999 11.2909 0.79999 11.9841C0.79999 12.6772 1.03466 13.2619 1.50399 13.7381C1.97332 14.209 2.57866 14.4445 3.31999 14.4445C3.97599 14.4445 4.50666 14.2672 4.91199 13.9127C5.31732 13.5582 5.54399 13.1111 5.59199 12.5714H3.21599V12.1745H6.02399Z" fill="white"/>
<path d="M11.7026 14.0159C11.1426 14.5715 10.4599 14.8493 9.65462 14.8493C8.84928 14.8493 8.16662 14.5715 7.60662 14.0159C7.04662 13.455 6.76662 12.7777 6.76662 11.9841C6.76662 11.1904 7.04662 10.5157 7.60662 9.96014C8.16662 9.39927 8.84928 9.11883 9.65462 9.11883C10.4599 9.11883 11.1426 9.39927 11.7026 9.96014C12.2626 10.5157 12.5426 11.1904 12.5426 11.9841C12.5426 12.7777 12.2626 13.455 11.7026 14.0159ZM7.90262 13.7302C8.38262 14.2064 8.96662 14.4445 9.65462 14.4445C10.3426 14.4445 10.9239 14.2064 11.3986 13.7302C11.8786 13.2487 12.1186 12.6666 12.1186 11.9841C12.1186 11.3015 11.8786 10.7221 11.3986 10.2459C10.9239 9.76437 10.3426 9.52361 9.65462 9.52361C8.96662 9.52361 8.38262 9.76437 7.90262 10.2459C7.42795 10.7221 7.19062 11.3015 7.19062 11.9841C7.19062 12.6666 7.42795 13.2487 7.90262 13.7302Z" fill="white"/>
<path d="M18.2339 14.0159C17.6739 14.5715 16.9912 14.8493 16.1859 14.8493C15.3805 14.8493 14.6979 14.5715 14.1379 14.0159C13.5779 13.455 13.2979 12.7777 13.2979 11.9841C13.2979 11.1904 13.5779 10.5157 14.1379 9.96014C14.6979 9.39927 15.3805 9.11883 16.1859 9.11883C16.9912 9.11883 17.6739 9.39927 18.2339 9.96014C18.7939 10.5157 19.0739 11.1904 19.0739 11.9841C19.0739 12.7777 18.7939 13.455 18.2339 14.0159ZM14.4339 13.7302C14.9139 14.2064 15.4979 14.4445 16.1859 14.4445C16.8739 14.4445 17.4552 14.2064 17.9299 13.7302C18.4099 13.2487 18.6499 12.6666 18.6499 11.9841C18.6499 11.3015 18.4099 10.7221 17.9299 10.2459C17.4552 9.76437 16.8739 9.52361 16.1859 9.52361C15.4979 9.52361 14.9139 9.76437 14.4339 10.2459C13.9592 10.7221 13.7219 11.3015 13.7219 11.9841C13.7219 12.6666 13.9592 13.2487 14.4339 13.7302Z" fill="white"/>
<path d="M25.4771 12.1745V12.3888C25.4771 13.082 25.2291 13.6667 24.7331 14.1429C24.2371 14.6138 23.5838 14.8493 22.7731 14.8493C21.9198 14.8493 21.2158 14.5741 20.6611 14.0238C20.1064 13.4683 19.8291 12.7883 19.8291 11.9841C19.8291 11.1798 20.1038 10.5025 20.6531 9.95221C21.2024 9.39662 21.8984 9.11883 22.7411 9.11883C23.2531 9.11883 23.7224 9.24053 24.1491 9.48393C24.5811 9.72733 24.9144 10.0527 25.1491 10.4602L24.7731 10.6824C24.5864 10.3332 24.3091 10.0527 23.9411 9.84109C23.5784 9.62944 23.1784 9.52361 22.7411 9.52361C22.0158 9.52361 21.4184 9.76172 20.9491 10.2379C20.4851 10.7089 20.2531 11.2909 20.2531 11.9841C20.2531 12.6772 20.4878 13.2619 20.9571 13.7381C21.4264 14.209 22.0318 14.4445 22.7731 14.4445C23.4291 14.4445 23.9598 14.2672 24.3651 13.9127C24.7704 13.5582 24.9971 13.1111 25.0451 12.5714H22.6691V12.1745H25.4771Z" fill="white"/>
<path d="M26.9637 14.3651H29.6037V14.762H26.5397V9.20614H26.9637V14.3651Z" fill="white"/>
<path d="M30.9091 14.3651H33.7091V14.762H30.4851V9.20614H33.6691V9.60298H30.9091V11.7618H33.4691V12.1587H30.9091V14.3651Z" fill="white"/>
<path d="M38.7875 9.20614C39.2888 9.20614 39.7048 9.37017 40.0355 9.69823C40.3662 10.0263 40.5315 10.4364 40.5315 10.9284C40.5315 11.4205 40.3662 11.8306 40.0355 12.1587C39.7048 12.4814 39.2888 12.6428 38.7875 12.6428H37.3075V14.762H36.8835V9.20614H38.7875ZM38.7875 12.246C39.1715 12.246 39.4862 12.1216 39.7315 11.8729C39.9822 11.6242 40.1075 11.3094 40.1075 10.9284C40.1075 10.5422 39.9822 10.2247 39.7315 9.97602C39.4862 9.72733 39.1715 9.60298 38.7875 9.60298H37.3075V12.246H38.7875Z" fill="white"/>
<path d="M42.0028 14.3651H44.6428V14.762H41.5788V9.20614H42.0028V14.3651Z" fill="white"/>
<path d="M49.4484 14.762L48.9044 13.3492H46.0964L45.5524 14.762H45.1044L47.2804 9.20614H47.7284L49.8964 14.762H49.4484ZM46.2564 12.9524H48.7524L47.5044 9.72204L46.2564 12.9524Z" fill="white"/>
<path d="M53.8809 9.20614L51.8409 12.4761V14.762H51.4169V12.4761L49.3769 9.20614H49.8569L51.6329 12.0714L53.4009 9.20614H53.8809Z" fill="white"/>
</svg>
