<svg width="20" height="21" viewBox="0 0 20 21" fill="none" xmlns="http://www.w3.org/2000/svg">
<g clip-path="url(#clip0_1_521)">
<path d="M11.5075 10.8191L1.46393 20.414C0.993605 20.0951 0.714365 19.5647 0.719303 18.9996V2.63857C0.714365 2.07343 0.993605 1.54301 1.46393 1.22412L11.5075 10.8191Z" fill="#2196F3"/>
<path d="M15.0217 7.46739L11.5074 10.8189L1.46387 1.22392C1.50171 1.19482 1.54113 1.16775 1.58191 1.14284C2.11272 0.823653 2.77574 0.813349 3.31639 1.11581L15.0217 7.46739Z" fill="#4CAF50"/>
<path d="M19.2806 10.8188C19.2872 11.4567 18.9377 12.046 18.3725 12.3504L15.0217 14.1702L11.5073 10.8188L15.0217 7.46729L18.3725 9.28716C18.9377 9.59148 19.2872 10.1808 19.2806 10.8188Z" fill="#F0BB1F"/>
<path d="M15.0217 14.1703L3.31639 20.5219C2.77455 20.8197 2.11404 20.8094 1.58191 20.4949C1.54113 20.47 1.50171 20.4429 1.46387 20.4138L11.5074 10.8188L15.0217 14.1703Z" fill="#F15A2B"/>
</g>
<defs>
<clipPath id="clip0_1_521">
<rect width="20" height="19.8422" fill="white" transform="translate(0 0.895996)"/>
</clipPath>
</defs>
</svg>
